<svg xmlns="http://www.w3.org/2000/svg" width="20.51" height="20.51" viewBox="0 0 20.51 20.51">
  <path id="instagram" d="M15.684,0H4.826A4.84,4.84,0,0,0,0,4.826V15.684A4.84,4.84,0,0,0,4.826,20.51H15.684a4.84,4.84,0,0,0,4.826-4.826V4.826A4.84,4.84,0,0,0,15.684,0ZM19.3,15.684A3.624,3.624,0,0,1,15.684,19.3H4.826a3.624,3.624,0,0,1-3.619-3.619V8.445H5.076a5.66,5.66,0,0,0-.551,2.413,5.731,5.731,0,1,0,11.462,0,5.66,5.66,0,0,0-.551-2.413H19.3Zm-4.524-4.826a4.524,4.524,0,1,1-4.524-4.524A4.529,4.529,0,0,1,14.779,10.858Zm-.118-3.619a5.653,5.653,0,0,0-8.812,0H1.206V4.826A3.624,3.624,0,0,1,4.826,1.206H15.684A3.624,3.624,0,0,1,19.3,4.826V7.239Zm2.777-3.955V4.85a.656.656,0,0,1-.654.655h-1.65a.658.658,0,0,1-.656-.655V3.284a.657.657,0,0,1,.656-.655h1.65a.656.656,0,0,1,.654.655Z" fill="#8c8ea8"/>
</svg>
