<svg xmlns="http://www.w3.org/2000/svg" width="19.304" height="18.45" viewBox="0 0 19.304 18.45">
  <path id="linkedin" d="M.739,6.849H4.887V19.3H.739V6.849Zm2.1-6A2.161,2.161,0,0,0,.5,3,2.139,2.139,0,0,0,2.788,5.153h.025a2.156,2.156,0,1,0,.025-4.3Zm12.2,5.705a4.088,4.088,0,0,0-3.733,2.062V6.849H7.173s.051,1.169,0,12.455h4.135V12.353a3.154,3.154,0,0,1,.138-1.017,2.267,2.267,0,0,1,2.126-1.508c1.494,0,2.1,1.144,2.1,2.815V19.3H19.8V12.165C19.8,8.344,17.767,6.559,15.041,6.559Z" transform="translate(-0.5 -0.854)" fill="#8c8ea8"/>
</svg>
