<svg xmlns="http://www.w3.org/2000/svg" width="20.51" height="20.51" viewBox="0 0 20.51 20.51">
  <path id="skype" d="M19.544,12a9.772,9.772,0,0,0,.162-1.741A9.423,9.423,0,0,0,8.513.966,5.368,5.368,0,0,0,5.429,0,5.436,5.436,0,0,0,0,5.429,5.374,5.374,0,0,0,.966,8.514,9.762,9.762,0,0,0,.8,10.255,9.424,9.424,0,0,0,12,19.544a5.368,5.368,0,0,0,3.084.966,5.436,5.436,0,0,0,5.429-5.429A5.374,5.374,0,0,0,19.544,12ZM15.081,19.3a4.191,4.191,0,0,1-2.573-.88l-.22-.169-.271.057a8.746,8.746,0,0,1-1.763.187A8.253,8.253,0,0,1,2.01,10.255,8.663,8.663,0,0,1,2.2,8.492l.055-.271L2.085,8A4.218,4.218,0,0,1,8,2.086l.22.169L8.494,2.2a8.813,8.813,0,0,1,1.761-.187A8.253,8.253,0,0,1,18.5,10.255a8.663,8.663,0,0,1-.188,1.763l-.055.271.169.22a4.185,4.185,0,0,1,.88,2.572A4.227,4.227,0,0,1,15.081,19.3Zm.264-6.951c0,2.552-2.464,3.733-4.826,3.733-2.828,0-5.192-1.257-5.192-2.8A1.211,1.211,0,0,1,6.6,11.965c1.345,0,1.471,1.935,3.8,1.935,1.105,0,1.822-.489,1.822-1.13,0-.8-.691-.93-1.81-1.206l-1.835-.452C6.737,10.67,5.328,9.916,5.328,7.8c0-2.551,2.526-3.494,4.7-3.494,2.376,0,4.775.942,4.775,2.388A1.3,1.3,0,0,1,13.5,8.069c-1.22,0-1.257-1.444-3.231-1.444-1.105,0-1.81.3-1.81.966,0,.73.717.893,1.673,1.12l1.305.3c1.786.4,3.91,1.155,3.91,3.341Z" transform="translate(0 0)" fill="#8c8ea8"/>
</svg>
