<svg xmlns="http://www.w3.org/2000/svg" width="16.879" height="20.255" viewBox="0 0 16.879 20.255">
  <path id="Icon_material-contacts" data-name="Icon material-contacts" d="M18.192,0H4.688V1.688h13.5ZM4.688,20.255h13.5V18.567H4.688Zm13.5-16.879H4.688A1.693,1.693,0,0,0,3,5.064V15.192a1.693,1.693,0,0,0,1.688,1.688h13.5a1.693,1.693,0,0,0,1.688-1.688V5.064A1.693,1.693,0,0,0,18.192,3.376ZM11.44,5.7a1.9,1.9,0,1,1-1.9,1.9A1.9,1.9,0,0,1,11.44,5.7Zm4.22,8.651H7.22V13.082c0-1.409,2.81-2.11,4.22-2.11s4.22.7,4.22,2.11Z" transform="translate(-3)" fill="#272a39"/>
</svg>
