<svg id="Group_4170" data-name="Group 4170" xmlns="http://www.w3.org/2000/svg" width="156.998" height="31.609" viewBox="0 0 156.998 31.609">
  <path id="Path_17400" data-name="Path 17400" d="M51.032,23.8H39.426l-3.019,6.5H32L45.414,1.845l12.94,28.462H53.877Zm-1.667-3.8L45.344,10.9,41.13,20.005Z" transform="translate(1.687 -0.806)" fill="#7486a8" fill-rule="evenodd"/>
  <path id="Path_17401" data-name="Path 17401" d="M57.449,3.18l7.073,18.364,7.389-19.7,7.072,19.7L86.5,3.18h4.452L78.808,32.4,71.825,12.932,64.541,32.415,53,3.18Z" transform="translate(2.823 -0.806)" fill="#7486a8" fill-rule="evenodd"/>
  <path id="Path_17402" data-name="Path 17402" d="M105.169,22.045H93.088a5.138,5.138,0,0,0,1.349,3.315A4.116,4.116,0,0,0,97.5,26.575a3.972,3.972,0,0,0,2.406-.695,9.809,9.809,0,0,0,2.128-2.568l3.289,1.84a13.2,13.2,0,0,1-1.608,2.23A8.67,8.67,0,0,1,101.9,28.91a7.268,7.268,0,0,1-2.095.877,10.174,10.174,0,0,1-2.439.276A7.926,7.926,0,0,1,91.3,27.633a9.129,9.129,0,0,1-2.284-6.49,9.381,9.381,0,0,1,2.215-6.491,8.421,8.421,0,0,1,11.8-.069,9.361,9.361,0,0,1,2.147,6.544Zm-4-3.194a3.735,3.735,0,0,0-3.929-3.123,4,4,0,0,0-1.334.218,3.779,3.779,0,0,0-1.133.624,3.936,3.936,0,0,0-.874.981,4.555,4.555,0,0,0-.555,1.3ZM112,.263V14.634a7.179,7.179,0,0,1,5.3-2.431,7.274,7.274,0,0,1,5.678,2.552,9.121,9.121,0,0,1,2.268,6.319,9.314,9.314,0,0,1-2.284,6.455,7.361,7.361,0,0,1-5.73,2.534A7.279,7.279,0,0,1,112,27.807v1.771h-3.894V.263Zm9.262,20.984a5.856,5.856,0,0,0-1.317-3.959,4.216,4.216,0,0,0-3.341-1.561,4.476,4.476,0,0,0-3.5,1.51,5.615,5.615,0,0,0-1.332,3.888,5.693,5.693,0,0,0,1.317,3.939,4.369,4.369,0,0,0,3.462,1.51,4.291,4.291,0,0,0,3.357-1.51,5.551,5.551,0,0,0,1.35-3.818Zm21.973.8H131.156a5.146,5.146,0,0,0,1.349,3.315,4.119,4.119,0,0,0,3.065,1.215,3.972,3.972,0,0,0,2.407-.695,9.861,9.861,0,0,0,2.127-2.568l3.289,1.84a13.3,13.3,0,0,1-1.608,2.23,8.638,8.638,0,0,1-1.819,1.528,7.287,7.287,0,0,1-2.094.877,10.193,10.193,0,0,1-2.441.276,7.921,7.921,0,0,1-6.057-2.429,9.123,9.123,0,0,1-2.285-6.49,9.382,9.382,0,0,1,2.216-6.491,8.421,8.421,0,0,1,11.8-.069,9.367,9.367,0,0,1,2.148,6.544Zm-4-3.194a3.733,3.733,0,0,0-3.929-3.123,3.992,3.992,0,0,0-1.332.218,3.8,3.8,0,0,0-1.134.624,3.972,3.972,0,0,0-.874.981,4.575,4.575,0,0,0-.553,1.3Zm6.778-6.178h3.894v1.511a7.414,7.414,0,0,1,1.9-1.546,4.349,4.349,0,0,1,2.007-.435,6.276,6.276,0,0,1,3.219,1.008l-1.783,3.575a3.713,3.713,0,0,0-2.162-.8q-3.186,0-3.186,4.827v8.765h-3.894ZM7.9.015H7.529A7.5,7.5,0,0,0,.043,7.52V24.038a7.5,7.5,0,0,0,7.485,7.507h.834A41.868,41.868,0,0,1,5.33,15.132,41.749,41.749,0,0,1,7.9.015m16.1,0H13.532a36.321,36.321,0,0,0-3.008,15.118,36.747,36.747,0,0,0,3.543,16.412H24a7.5,7.5,0,0,0,7.488-7.507V7.52A7.5,7.5,0,0,0,24,.015M18.934,29.431a1.339,1.339,0,0,1-.838.287,1.246,1.246,0,0,1-.983-.55A20.879,20.879,0,0,1,12.6,15.834,20.492,20.492,0,0,1,17.144,2.585a1.288,1.288,0,0,1,1.012-.552,1.265,1.265,0,0,1,.779.261,1.2,1.2,0,0,1,.637.985,1.16,1.16,0,0,1-.26.668,18.406,18.406,0,0,0-4.135,11.887,18.654,18.654,0,0,0,4.1,11.944,1.3,1.3,0,0,1,.26.694,1.182,1.182,0,0,1-.607.959m5.024-5.575a.91.91,0,0,1,.182.485.821.821,0,0,1-.424.666.929.929,0,0,1-.584.2.865.865,0,0,1-.685-.383A14.544,14.544,0,0,1,19.3,15.537a14.273,14.273,0,0,1,3.163-9.228.9.9,0,0,1,.7-.385.886.886,0,0,1,.544.181.835.835,0,0,1,.443.687.8.8,0,0,1-.181.465,12.826,12.826,0,0,0-2.88,8.28,12.993,12.993,0,0,0,2.86,8.32" transform="translate(-0.043 -0.015)" fill="#7486a8" fill-rule="evenodd"/>
</svg>
