<svg id="Group_4169" data-name="Group 4169" xmlns="http://www.w3.org/2000/svg" width="182.084" height="49.426" viewBox="0 0 182.084 49.426">
  <g id="Group_4167" data-name="Group 4167">
    <path id="Path_17394" data-name="Path 17394" d="M33.94,22.385h1.03a2.787,2.787,0,0,0,0-1.9c-.218-1.132-.562-1.9-1.248-1.8-.687.122-.687,1.009-.468,2.141a2.706,2.706,0,0,0,.687,1.56Z" transform="translate(1.786 0.915)" fill="#7486a8"/>
    <path id="Path_17395" data-name="Path 17395" d="M4.7,1.761c.468.214.811.336.905.214.125-.122,0-.214-.125-.459A2.683,2.683,0,0,0,4.233.507,3.411,3.411,0,0,0,.8.966c-.343.214-.687.55-.562.8,0,.122.125.122.218.122a15.6,15.6,0,0,1,2.4-.55A4.177,4.177,0,0,1,4.7,1.761Zm-1.03.55a2.225,2.225,0,0,0-1.248.55c-.218.214-.343.336-.343.459v.122H2.2a2.392,2.392,0,0,0,.468-.122,3.412,3.412,0,0,1,2.06-.214c.343,0,.468.122.562,0V2.892c-.031-.336-.718-.673-1.623-.581Z" transform="translate(24.971 22.549)" fill="#7486a8"/>
    <path id="Path_17396" data-name="Path 17396" d="M28.649,24.636a3.847,3.847,0,0,0,0-2.233c-.218-1.132-.562-1.8-1.373-1.8-.687.122-.687,1.009-.468,2.233a7,7,0,0,0,.562,1.56c.593.918.936.673,1.28.245Zm4.681,1.223a.9.9,0,0,0,1.155-.214,1,1,0,0,0-1.716-.8C32.519,25.186,32.862,25.645,33.33,25.859Zm2.84-2.447c-.343,0-.687.336-.687.887,0,.459.219.887.687.887.343,0,.687-.336.687-.887C36.763,23.841,36.513,23.412,36.17,23.412ZM11.984,32.128a.207.207,0,0,0-.343,0H11.3a.623.623,0,0,1-.562-.336,1.546,1.546,0,0,1,0-1.009l.125-.214a2.7,2.7,0,0,0,.218-2.691,2.461,2.461,0,0,0-1.841-1.346,2.229,2.229,0,0,0-2.06.8,3.109,3.109,0,0,0-.811,2.447.232.232,0,0,0,.218.214c.125,0,.343-.122.468-.459v-.122a1.625,1.625,0,0,1,.343-.8,1.126,1.126,0,0,1,.905-.55,1.45,1.45,0,0,1,1.155.214,1.36,1.36,0,0,1,.562,1.682,2.04,2.04,0,0,0-.468,1.468,1.691,1.691,0,0,0,1.373,1.56c.562,0,1.03-.336,1.03-.551.125-.183.031-.183.031-.306Z" transform="translate(0.336 1.019)" fill="#7486a8"/>
    <path id="Path_17397" data-name="Path 17397" d="M45.532,31.343a7.686,7.686,0,0,0-.343-1.223L44.72,29.11a3.563,3.563,0,0,0,.687-2.783,4.454,4.454,0,0,0-1.03-2.018,7.764,7.764,0,0,0-3.651-1.8l-.905-.214s0-2.141-.125-3.028a8.816,8.816,0,0,0-.468-2.691,6.727,6.727,0,0,0-1.935-3.364c2.278-2.355,3.776-5.046,3.776-7.279,0-4.251-5.368-5.6-12.109-2.905l-1.373.55s-2.5-2.447-2.622-2.447c-7.4-6.484-31.021,19.359-23.5,25.628L3.058,28.1a8.042,8.042,0,0,0-.468,3.7,8.442,8.442,0,0,0,2.5,4.71,7.708,7.708,0,0,0,5.024,2.019c2.965,6.728,9.706,10.735,17.57,10.979,8.457.214,15.635-3.7,18.6-10.643a13.54,13.54,0,0,0,1.03-4.71c.187-2.049-.967-2.814-1.779-2.814Zm-34.7,5.26c-.218,0-.562.122-.811,0-2.5-.122-5.368-2.355-5.586-5.046-.218-2.905,1.248-5.138,3.995-5.719a3.344,3.344,0,0,1,1.155-.122,4.944,4.944,0,0,1,4.338,4.465C14.355,33.239,13.7,36.144,10.829,36.6ZM7.989,24.064a6.426,6.426,0,0,0-4.119,2.569,8.722,8.722,0,0,1-1.716-1.682c-1.5-2.691,1.592-8.043,3.776-10.979C11.172,6.6,19.5,1,23.281,1.983c.687.214,2.746,2.569,2.746,2.569A56.925,56.925,0,0,0,18.6,9.6,31.657,31.657,0,0,0,7.989,24.064ZM34.921,35.471l.125-.122a.122.122,0,0,0-.125-.122,18.572,18.572,0,0,1-7.771-.8c.468-1.346,1.5-.887,3.183-.673a21.935,21.935,0,0,0,7.646-.8,17.589,17.589,0,0,0,5.711-2.783,12.5,12.5,0,0,1,.811,2.691,1.082,1.082,0,0,1,.811.122c.343.214.562.673.468,1.8a10.729,10.729,0,0,1-2.84,5.6,12.079,12.079,0,0,1-3.526,2.569,13.485,13.485,0,0,1-2.278.887c-6.179,1.9-12.327-.122-14.262-4.71a3.027,3.027,0,0,1-.343-1.132,9.183,9.183,0,0,1,2.185-8.838h0a.807.807,0,0,0,.218-.55.715.715,0,0,0-.218-.459c-.811-1.132-3.526-3.028-2.965-6.728a4.986,4.986,0,0,1,4.9-4.373h.562c.9,0,1.841.214,2.5.214a5.58,5.58,0,0,0,3.87-1.223,3.336,3.336,0,0,1,1.5-.8.813.813,0,0,1,.562,0,1.317,1.317,0,0,1,.905.336c1.155.8,1.248,2.447,1.373,3.792,0,.8.125,2.569.125,3.028.125,1.132.343,1.346,1.03,1.56.343.122.687.214,1.155.336a7.34,7.34,0,0,1,2.965,1.346,2.067,2.067,0,0,1,.562,1.009c.218,1.223-1.03,2.783-4.119,4.251a20.392,20.392,0,0,1-10.267,1.56l-1.03-.122c-2.278-.336-3.526,2.569-2.185,4.465.905,1.223,3.308,2.141,5.586,2.141,5.493,0,9.706-2.233,11.2-4.251l.125-.214c.125-.122,0-.214-.125-.122-1.248.887-6.959,4.251-13.014,3.242a12.816,12.816,0,0,1-1.373-.336,2.666,2.666,0,0,1-1.841-1.8c5.118,1.468,8.208,0,8.208,0ZM17.788,14a21.346,21.346,0,0,1,6.273-5.046c.125,0,.125,0,.125.122a9.325,9.325,0,0,0-.562,1.346.122.122,0,0,0,.125.122,11.568,11.568,0,0,1,5.493-1.9.121.121,0,0,1,.125.122,6.127,6.127,0,0,0-.905.887.121.121,0,0,0,.125.122A9.769,9.769,0,0,1,33.142,11c.125,0,0,.214-.125.214a18.418,18.418,0,0,0-8.332,0,19.118,19.118,0,0,0-6.741,2.905c-.156-.031-.25-.031-.156-.122Z" transform="translate(-0.007 -0.091)" fill="#7486a8"/>
  </g>
  <g id="Group_4168" data-name="Group 4168" transform="translate(52.944 14.941)">
    <path id="Path_17398" data-name="Path 17398" d="M123.422,4.7a4.942,4.942,0,0,0-4.576,3.295c-.336.808-.336,1.026-.549,1.026-.335,0-.122-.684.122-1.368a7.044,7.044,0,0,0,.121-2.611h-3.9V24.156h5.37v-6.03a4.1,4.1,0,0,0,3.569,2.269c3.9,0,5.8-3.295,5.8-7.833-.031-5.129-2.38-7.864-5.95-7.864Zm-1.434,12.06c-1.221,0-2.136-1.585-2.136-3.761s.884-3.761,2.136-3.761c1.464,0,2.136,1.368,2.136,3.761-.031,2.518-.58,3.761-2.136,3.761ZM17.285,4.7c-2.349,0-3.447,1.927-4.027,3.077-.336.684-.336,1.243-.671,1.243s-.122-.466-.336-1.492A3.649,3.649,0,0,0,8.469,4.7C6.028,4.7,4.9,6.873,4.442,7.992c-.336.808-.336,1.026-.549,1.026-.336,0-.122-.684.122-1.368a7.047,7.047,0,0,0,.122-2.611H.232V20.053H5.479V12.562c0-1.492.549-3.295,1.678-3.295,1.22,0,1.464.9,1.464,2.611v8.175h5.369V12.562c0-1.368.549-3.295,1.678-3.295,1.22,0,1.464,1.368,1.464,2.611V19.96h5.125V11.1c-.061-3.885-1.4-6.4-4.973-6.4Zm90.639,0c-2.35,0-3.448,1.927-4.027,3.077-.336.684-.336,1.243-.671,1.243s-.122-.56-.336-1.492A3.649,3.649,0,0,0,99.107,4.7c-2.441,0-3.569,2.176-4.027,3.295-.336.808-.336,1.026-.549,1.026-.336,0-.122-.684.122-1.368a7.047,7.047,0,0,0,.122-2.611h-3.9V20.053H96.24V12.562c0-1.492.549-3.295,1.678-3.295,1.22,0,1.464.9,1.464,2.611v8.175h5.369V12.562c0-1.368.549-3.295,1.678-3.295,1.22,0,1.464,1.368,1.464,2.611V19.96h5.247V11.1c-.306-3.885-1.648-6.4-5.217-6.4Zm-76.575,0A16.936,16.936,0,0,0,24.3,6.19v4.538S27.536,8.8,30.221,8.8c2.136,0,2.349,1.15,2.227,2.176a13.763,13.763,0,0,0-2.441-.124c-4.363,0-6.59,2.052-6.59,5.222,0,3.077,2.441,4.321,4.576,4.321a5.013,5.013,0,0,0,4.79-3.077c.336-.684.336-1.15.549-1.15.336,0,.214.342.214,1.026a11.074,11.074,0,0,0,.214,2.829h4.058v-7.4C37.7,7.992,36.139,4.7,31.349,4.7ZM30.007,16.54c-1.22.342-1.891-.124-1.891-.9,0-1.15,1.22-1.71,2.9-1.71a9,9,0,0,1,1.464.124A4.173,4.173,0,0,1,30.007,16.54ZM46.512.5h5.369V20.053H46.512ZM57.8,12.562c0-1.368,1.22-2.611,3.447-2.611a10.2,10.2,0,0,1,4.912,1.492V6.19S64.6,4.7,60.79,4.7c-4.027,0-7.352,2.393-7.352,7.615s3.02,8.082,7.352,8.082a8.619,8.619,0,0,0,5.461-1.927v-5a9.741,9.741,0,0,1-4.912,1.585c-2.654.124-3.539-1.119-3.539-2.487ZM76.989,4.7c-3.112,0-4.241,2.953-4.454,3.512s-.336.808-.549.808c-.336,0-.122-.684,0-1.026a19.1,19.1,0,0,0,.793-5.222A7.478,7.478,0,0,0,72.566.5H67.989V20.053h5.369V12.562c0-1.243.458-3.295,1.8-3.295,1.129,0,1.464.808,1.464,2.487v8.3h5.369V12.1c-.214-3.854-.763-7.4-5-7.4Zm6.59.342V20.053h5.369V5.039a5.351,5.351,0,0,1-2.685.56,7.013,7.013,0,0,1-2.685-.56Z" transform="translate(-0.232 -0.252)" fill="#7486a8"/>
    <ellipse id="Ellipse_1439" data-name="Ellipse 1439" cx="3.234" cy="2.176" rx="3.234" ry="2.176" transform="translate(82.798)" fill="#7486a8"/>
    <path id="Path_17399" data-name="Path 17399" d="M37.479,4.806V19.82h5.339V4.806a5.351,5.351,0,0,1-2.685.56A26.9,26.9,0,0,0,37.479,4.806Z" transform="translate(1.785 -0.019)" fill="#7486a8"/>
    <ellipse id="Ellipse_1440" data-name="Ellipse 1440" cx="3.234" cy="2.176" rx="3.234" ry="2.176" transform="translate(38.684)" fill="#7486a8"/>
  </g>
</svg>
