<svg id="Group_4219" data-name="Group 4219" xmlns="http://www.w3.org/2000/svg" width="203.448" height="44.273" viewBox="0 0 203.448 44.273">
  <path id="Path_17391" data-name="Path 17391" d="M50.319,33.914a3.011,3.011,0,0,1-3.022,3,2.947,2.947,0,0,1,.049-5.894,2.991,2.991,0,0,1,2.973,2.9M29.767,42.036A2.88,2.88,0,0,1,26.888,45a2.937,2.937,0,1,1-.065-5.87,2.9,2.9,0,0,1,2.944,2.909M9.941,36.228a2.95,2.95,0,0,1-3,2.884,2.939,2.939,0,0,1-.024-5.878,2.971,2.971,0,0,1,3.025,2.994M25.966,7.51c-.01,1.89-.01,3.781-.031,5.67-.005.466.093,1.024-.758.781-4.742-1.357-9.492-2.685-14.24-4.023-.009-.091-.018-.183-.028-.275C14.934,8.218,18.95,6.743,22.99,5.341A2.1,2.1,0,0,1,25.966,7.51M152.228,23.953c1.179,2.01,1.13,2.333-.809,3.652-3.66,2.489-9.86,2.435-13.352-1.391a9.95,9.95,0,0,1-.025-13.133A9.319,9.319,0,0,1,145.514,10a9.67,9.67,0,0,1,4.007.721c2.529,1.218,3.25,2.5,2.888,5.273-.012.087.021.212-.025.257-1,.952-2.228.256-3.336.45-.5.086-.92-.077-.863-.684.154-1.659-1.02-1.849-2.206-1.952a4.838,4.838,0,0,0-4.992,2.541,5.628,5.628,0,0,0,.21,6.242,5.448,5.448,0,0,0,5.6,2.2,6.044,6.044,0,0,0,3.785-2c.489-.539.836-.564,1.182.1.143.273.3.535.461.8m-73.143-2.6a4.989,4.989,0,0,1-1.8,6.683,9.7,9.7,0,0,1-11.674-1.6c-.5-.564-.617-.958-.063-1.548.63-.67,1.036-1.8,1.775-2.05.777-.268,1.2,1.034,1.919,1.482a6.066,6.066,0,0,0,4.542.969,1.372,1.372,0,0,0,.463-2.636,34.385,34.385,0,0,0-3.243-1.489,25.335,25.335,0,0,1-2.46-1.285c-2.34-1.475-3.27-3.466-2.76-5.762a5.718,5.718,0,0,1,5.09-4c.571-.065,1.146-.083,1.72-.123a10.941,10.941,0,0,1,3.508.5A6.165,6.165,0,0,1,77.2,11c1.614.968,2.6,3.028,1.758,4.645-.625,1.2-2.154.268-3.252.505-.479.1-.923-.055-.854-.675.106-.935-.356-1.339-1.222-1.524a3.109,3.109,0,0,0-3.109.571c-.759.826-.114,1.6.709,1.995,1.508.728,3.075,1.333,4.6,2.025a7.034,7.034,0,0,1,3.254,2.806m14.078.85c-.708,2.252-2.3,3.414-4.367,3.188a2.074,2.074,0,0,1-2.012-1.609,1.943,1.943,0,0,1,1.248-2.335,10.147,10.147,0,0,1,3.663-.781c1.816-.027,1.917.109,1.468,1.537m6.206,2.492c-1.837.327-1.451-.962-1.467-1.952-.014-.879,0-1.759,0-2.638h-.023c0-1.143.042-2.288-.009-3.429-.106-2.359-.837-4.513-3.067-5.625a10.376,10.376,0,0,0-9.58.059,3.887,3.887,0,0,0-1.568,4.531c.507,1.069,1.734.335,2.626.49.974.17,1.678-.059,1.473-1.287a.708.708,0,0,1,.3-.688c1.295-1.031,4.46-.164,5.064,1.394.491,1.267.329,1.5-1.034,1.569a16.338,16.338,0,0,0-6.95,1.443,5.545,5.545,0,0,0-2.572,7.215c1.335,3.107,5.826,4.52,9.1,2.858,1.06-.538,1.811-1.715,3.327-.243.981.953,2.892.366,4.391.376a.524.524,0,0,0,.57-.584c0-.967,0-1.934-.011-2.9-.005-.356-.225-.65-.57-.588m34.008.521a29.513,29.513,0,0,1-.03,3.289c-.033.451-.547.347-.882.351-.974.011-1.948.018-2.921-.007-1.972-.05-2.815-.84-2.867-2.838-.06-2.329-.016-4.661-.025-6.991,0-.747-.013-1.5-.054-2.241-.161-2.948-2.521-3.053-4.24-2.031a5.6,5.6,0,0,0-2.656,5.031c-.051,2.637-.06,5.277-.007,7.914.019.934-.289,1.27-1.209,1.174-1.087-.113-2.488.461-3.187-.214-.646-.624-.124-2-.158-3.049-.094-2.943.175-5.9-.144-8.831-.28-2.565-2.484-3.449-4.556-1.832a5.775,5.775,0,0,0-2.237,4.05,67.537,67.537,0,0,0-.12,8.567c.02,1.074-.3,1.334-1.329,1.325-3.25-.031-3.25.007-3.25-3.22q0-1.979,0-3.958c0-2.067-.025-4.134.011-6.2.014-.774-.078-1.289-1.053-1.113-.827.15-1.136-.169-1.136-1.07,0-2.955-.041-2.942,2.966-2.965,1.413-.01,2.757.021,3.522,1.52.332.651.67.064.918-.14a7.391,7.391,0,0,1,5.549-1.7,4.945,4.945,0,0,1,3.935,2.112c.529.783.852.616,1.385.062a7.6,7.6,0,0,1,7.072-2.085c2.31.357,4.181,2.654,4.439,5.432.24,2.588.132,5.184.117,7.777-.005.993.08,1.772,1.405,1.531.284-.052.727-.057.744.344M50.484,25.3a1.608,1.608,0,0,1-1.268,1.788q-10.087,3.85-20.1,7.881a5.852,5.852,0,0,1-4.189.194C18.431,33.151,11.9,31.247,5.376,29.34a1.475,1.475,0,0,1-1.287-1.7c.07-4.617.007-9.234.045-13.851.007-.789-.216-1.215-.987-1.419-.6-.157-1.146-.5-1.745-.618C.276,11.533-.031,10.921,0,9.826A1.2,1.2,0,0,1,.985,8.537Q11.8,4.741,22.6.907A2.164,2.164,0,0,1,24.005.8Q35.14,4.014,46.286,7.193a.481.481,0,0,1,.423.444L28.057,14.058c0-2.959-.039-5.765.023-8.569.02-.907-.212-1.435-1.152-1.545a.886.886,0,0,1-.251-.084A7.488,7.488,0,0,0,20.462,4C15.233,6.023,9.917,7.825,4.64,9.726c-.176.064-.446.034-.524.427Q9.122,11.56,14.136,12.97c4,1.119,8,2.225,11.989,3.362a3.25,3.25,0,0,0,2.06-.061q10.388-3.6,20.79-7.156c1.5-.515,1.493-.521,1.492,1.019,0,5.057-.022,10.114.016,15.171m152.939.635a9.235,9.235,0,0,0-.008,1.054c-.006,2.143-.006,2.143-2.22,2.022-4.291-.236-6.729-2.743-6.8-7.012-.019-1.054,0-2.109,0-3.163h-.006c0-1.186-.045-2.374.015-3.557.043-.819-.26-1.146-1.058-1.022-.954.148-1.269-.281-1.166-1.179a5.66,5.66,0,0,0,0-1.316c-.126-1.034.169-1.605,1.347-1.415.8.13.967-.344.942-1.027-.033-.921.02-1.845-.017-2.766-.026-.665.2-.9.9-.947,3.625-.265,3.661-.286,3.626,3.323-.011,1.062.254,1.453,1.389,1.44,2.792-.033,2.75.023,2.794,2.719.016.932-.259,1.191-1.185,1.188-2.976-.01-2.98.026-2.975,2.932,0,1.581-.03,3.164.044,4.742.1,2.083,1.149,3.061,3.26,2.871,1.038-.093,1.227.248,1.125,1.114M189.288,13.3c.106,1,.053,1.569-1.349,1.368-2.276-.325-4.419,1.862-4.775,4.545a65.178,65.178,0,0,0-.191,8.427c0,1-.309,1.25-1.286,1.243-3.268-.026-3.268.012-3.268-3.175,0-3.384-.03-6.768.013-10.152.009-.869-.163-1.354-1.145-1.194-.826.134-1.133-.245-1.019-1.037a3.657,3.657,0,0,0,0-.527c-.006-2.45-.006-2.45,2.4-2.435,1.145.008,2.667-.337,3.256.633,1.073,1.769,1.764.685,2.682.051a5.453,5.453,0,0,1,1.437-.663c2.532-.808,3.237-.306,3.235,2.257a5.965,5.965,0,0,0,0,.658M167,22.3c-.733,2.241-2.43,3.411-4.455,3.069a2.081,2.081,0,0,1-1.9-1.748,1.932,1.932,0,0,1,1.321-2.188,10.192,10.192,0,0,1,3.639-.775c1.8-.05,1.9.1,1.4,1.641m6.846,3.375c.121-.684-.154-1.131-.947-1.013-1,.149-1.162-.359-1.143-1.218.045-2.153.027-4.309,0-6.464a7.162,7.162,0,0,0-1.374-4.453C168.754,10.426,166.463,10,164,9.98c-.706.045-1.418.052-2.119.14-2.578.324-4.163,1.648-4.4,3.645-.278,2.3-.221,2.363,2.092,2.366,1.072,0,2.364.323,2.067-1.524-.035-.216.173-.373.37-.5,1.661-1.083,4.686.035,5.14,1.889.191.781.018,1.108-.873,1.133a20.087,20.087,0,0,0-6.011.883c-3.608,1.233-5.2,4.536-3.761,7.859s6.671,4.589,9.84,2.286c.78-.566,1.17-.734,2.05-.037,1.5,1.187,3.48.9,5.1.462.9-.242.178-1.9.354-2.9" transform="translate(0 -0.724)" fill="#7486a8" fill-rule="evenodd"/>
</svg>
