<svg id="Group_4171" data-name="Group 4171" xmlns="http://www.w3.org/2000/svg" width="208.718" height="47.252" viewBox="0 0 208.718 47.252">
  <path id="Path_17404" data-name="Path 17404" d="M117.706,17.217h-8.215v.9c2.57,0,2.983.57,2.983,3.941v6.078c0,3.371-.413,3.989-2.983,3.989-1.972-.285-3.3-1.377-5.14-3.466l-2.11-2.374c2.845-.523,4.359-2.374,4.359-4.464,0-2.611-2.156-4.606-6.2-4.606H92.328v.9c2.57,0,2.983.57,2.983,3.941v6.078c0,3.371-.413,3.989-2.983,3.989v.9h9.132v-.9c-2.57,0-2.983-.617-2.983-3.989V26.429h.78l5.094,6.6h13.355c6.563,0,9.408-3.608,9.408-7.93s-2.845-7.882-9.408-7.882ZM98.478,24.956V18.641h1.881a2.87,2.87,0,0,1,2.983,3.181,2.855,2.855,0,0,1-2.983,3.134H98.478Zm19.366,6.6h-.322c-1.652,0-1.882-.427-1.882-2.612v-10.3h2.2c4.773,0,5.644,3.608,5.644,6.41,0,2.9-.872,6.505-5.644,6.505Zm-50.479-4.5,3.1-9.558c.9-2.764.494-3.56-2.377-3.56V13h8.433v.937c-2.826,0-3.5.7-4.62,4.123L66.782,34.083H66.2L61.623,19.418,56.958,34.083h-.583L51.4,18.06C50.32,14.64,49.6,13.937,47,13.937V13h9.958v.937c-2.647,0-3.365.656-2.422,3.56l3.005,9.558L62.072,13h.853Z" transform="translate(2.544 0.704)" fill="#7486a8"/>
  <path id="Path_17405" data-name="Path 17405" d="M85.212,34.614c-5.218,0-9.487-3.8-9.487-8.457,0-4.6,4.27-8.41,9.487-8.41s9.487,3.806,9.487,8.41C94.7,30.809,90.43,34.614,85.212,34.614Zm0-15.409c-4.364,0-5.882,3.9-5.882,6.952,0,3.1,1.518,6.953,5.882,6.953,4.412,0,5.93-3.852,5.93-6.953C91.142,23.1,89.624,19.205,85.212,19.205Zm56.414,13.556v.916H131.115v-.916c3.075,0,3.626-.778,3.626-5.359V20.075c0-4.58-.551-5.313-3.626-5.313v-.916h9.5c4.727,0,7.344,2.427,7.344,5.68,0,3.16-2.617,5.633-7.344,5.633H138V27.4C138,31.983,138.55,32.761,141.626,32.761Zm-1.01-17.266H138v7.969h2.616c2.57,0,3.763-1.786,3.763-3.938C144.379,17.328,143.186,15.495,140.616,15.495Zm38.876,13.878-.23.824c-.413,1.511-.918,2.061-4.178,2.061h-.642c-2.387,0-2.8-.55-2.8-3.8V26.35c3.58,0,3.856.32,3.856,2.7h.872V22.228H175.5c0,2.381-.276,2.7-3.856,2.7V19.8h2.524c3.259,0,3.764.55,4.178,2.061l.23.87h.734l-.32-4.3h-13.5v.87c2.57,0,2.983.55,2.983,3.8V28.96c0,2.975-.351,3.724-2.377,3.831-1.926-.293-3.248-1.342-5.058-3.327l-2.111-2.29c2.846-.5,4.361-2.29,4.361-4.305,0-2.518-2.158-4.442-6.2-4.442h-8.079v.87c2.57,0,2.983.55,2.983,3.8V28.96c0,3.251-.412,3.847-2.983,3.847v.87h9.135v-.87c-2.57,0-2.984-.6-2.984-3.847V27.312h.781l5.095,6.365h18.864l.276-4.3h-.689Zm-24.326-3.481V19.8h1.882a2.811,2.811,0,0,1,2.983,3.068,2.8,2.8,0,0,1-2.983,3.022h-1.882Zm33.644,8.381a6.793,6.793,0,0,1-4.131-1.557,3.287,3.287,0,0,0-.735,1.557h-.872V27.953h.918a5.088,5.088,0,0,0,5.186,4.808c1.468,0,2.663-.824,2.663-2.2,0-1.191-1.056-2.107-2.938-2.977l-2.616-1.236a4.985,4.985,0,0,1-3.213-4.4c0-2.2,2.065-4.076,4.911-4.076a5.759,5.759,0,0,1,3.581,1.191,2.591,2.591,0,0,0,.6-1.237h.872v5.4h-.965c-.322-2.153-1.515-3.939-3.947-3.939-1.285,0-2.479.733-2.479,1.878,0,1.191.965,1.831,3.168,2.839l2.524,1.236a4.779,4.779,0,0,1,3.076,4.122c0,2.885-2.525,4.9-5.6,4.9Zm14.136,0a6.787,6.787,0,0,1-4.13-1.557,3.287,3.287,0,0,0-.735,1.557h-.872V27.953h.918a5.088,5.088,0,0,0,5.186,4.808c1.468,0,2.662-.824,2.662-2.2,0-1.191-1.055-2.107-2.938-2.977l-2.616-1.236a4.986,4.986,0,0,1-3.213-4.4c0-2.2,2.066-4.076,4.912-4.076a5.756,5.756,0,0,1,3.58,1.191,2.581,2.581,0,0,0,.6-1.237h.873v5.4h-.963c-.321-2.153-1.515-3.939-3.948-3.939-1.285,0-2.478.733-2.478,1.878,0,1.191.963,1.831,3.167,2.839l2.525,1.236a4.78,4.78,0,0,1,3.075,4.122c0,2.885-2.525,4.9-5.6,4.9ZM3.193,23.453A20.268,20.268,0,0,0,14.641,41.694L4.952,15.2A20.153,20.153,0,0,0,3.193,23.453ZM37.219,22.43a10.654,10.654,0,0,0-1.675-5.59c-1.03-1.67-1.995-3.083-1.995-4.753a3.513,3.513,0,0,1,3.411-3.6c.09,0,.175.011.263.016A20.337,20.337,0,0,0,6.534,12.321c.477.014.926.024,1.307.024,2.125,0,5.414-.257,5.414-.257a.837.837,0,0,1,.13,1.67s-1.1.129-2.325.193l7.4,21.954L22.9,22.6,19.738,13.95c-1.094-.064-2.13-.193-2.13-.193a.837.837,0,0,1,.128-1.67s3.355.257,5.351.257c2.124,0,5.413-.257,5.413-.257a.837.837,0,0,1,.13,1.67s-1.1.129-2.325.193l7.341,21.787,2.026-6.756C36.55,26.179,37.219,24.165,37.219,22.43Z" transform="translate(0.173 0.172)" fill="#7486a8"/>
  <path id="Path_17406" data-name="Path 17406" d="M23.114,24.684,17.019,42.355A20.365,20.365,0,0,0,29.5,42.032a1.779,1.779,0,0,1-.145-.279Zm17.467-11.5a15.508,15.508,0,0,1,.137,2.084,19.083,19.083,0,0,1-1.545,7.26l-6.2,17.9a20.243,20.243,0,0,0,7.612-27.243Z" transform="translate(0.921 0.714)" fill="#7486a8"/>
  <path id="Path_17407" data-name="Path 17407" d="M23.679,0a23.626,23.626,0,1,0,23.68,23.625A23.679,23.679,0,0,0,23.679,0Zm0,46.169A22.543,22.543,0,1,1,46.27,23.625,22.594,22.594,0,0,1,23.679,46.169Z" fill="#7486a8"/>
</svg>
