<svg xmlns="http://www.w3.org/2000/svg" width="50.113" height="50.113" viewBox="0 0 50.113 50.113">
  <g id="analytics" transform="translate(-0.002)">
    <g id="Group_2" data-name="Group 2" transform="translate(7.44)">
      <g id="Group_1" data-name="Group 1">
        <path id="Path_24" data-name="Path 24" d="M112.606,0a5.913,5.913,0,0,0-.592.029A.979.979,0,0,0,111.78,0H82.264A6.271,6.271,0,0,0,76,6.264v3.915a.979.979,0,1,0,1.958,0V6.264a4.311,4.311,0,0,1,4.307-4.307h25.883a6.044,6.044,0,0,0-1.61,4.111.98.98,0,0,0,0,.1q0,.049,0,.1v6.688a.979.979,0,0,0,1.958,0V7.047h9.2a.979.979,0,0,0,.979-.979A6.075,6.075,0,0,0,112.606,0Zm-3.992,5.09a4.11,4.11,0,0,1,7.984,0Z" transform="translate(-76)" fill="#fff"/>
      </g>
    </g>
    <g id="Group_4" data-name="Group 4" transform="translate(2.767 5.284)">
      <g id="Group_3" data-name="Group 3">
        <path id="Path_25" data-name="Path 25" d="M58.553,53.99H52.334a.979.979,0,1,0,0,1.958h3.981l-11.1,11.1L38.7,60.542a.979.979,0,0,0-1.384,0l-8.784,8.785A.979.979,0,0,0,29.92,70.71l8.092-8.092,6.508,6.508a.979.979,0,0,0,1.384,0l11.67-11.67v3.732a.979.979,0,1,0,1.958,0V54.969A.979.979,0,0,0,58.553,53.99Z" transform="translate(-28.249 -53.99)" fill="#fff"/>
      </g>
    </g>
    <g id="Group_6" data-name="Group 6" transform="translate(0.002 23.099)">
      <g id="Group_5" data-name="Group 5" transform="translate(0)">
        <path id="Path_26" data-name="Path 26" d="M1.672,236.287a.979.979,0,1,0,.212,1.066A.978.978,0,0,0,1.672,236.287Z" transform="translate(-0.002 -236)" fill="#fff"/>
      </g>
    </g>
    <g id="Group_8" data-name="Group 8" transform="translate(2.155 20.948)">
      <g id="Group_7" data-name="Group 7">
        <path id="Path_27" data-name="Path 27" d="M64.479,223.816a.979.979,0,0,0-.979-.979H56.062V215.4a.979.979,0,0,0-.979-.979,9.4,9.4,0,1,0,2.74,18.385v4.321a4.111,4.111,0,1,1-8.222,0c0-.03,0-.06,0-.09a.99.99,0,0,0,.006-.106.979.979,0,0,0-.979-.979H29.243V215.008a.979.979,0,1,0-1.958,0v20.943H22.979a.979.979,0,0,0-.979.979,6.271,6.271,0,0,0,6.264,6.264H53.712a6.075,6.075,0,0,0,6.068-6.068v-5.091c0-.027,0-.054,0-.08A9.4,9.4,0,0,0,64.479,223.816Zm-36.215,17.42a4.314,4.314,0,0,1-4.194-3.328H47.7a6.049,6.049,0,0,0,1.557,3.328Zm26.819-9.982a7.439,7.439,0,0,1-.979-14.813v7.375a.979.979,0,0,0,.979.979h7.375A7.45,7.45,0,0,1,55.083,231.254Z" transform="translate(-22 -214.029)" fill="#fff"/>
      </g>
    </g>
    <g id="Group_10" data-name="Group 10" transform="translate(37.586 15.859)">
      <g id="Group_9" data-name="Group 9">
        <path id="Path_28" data-name="Path 28" d="M384.979,162.029a.979.979,0,0,0-.979.979v10.571a.979.979,0,0,0,.979.979h10.571a.979.979,0,0,0,.979-.979,11.563,11.563,0,0,0-11.549-11.549Zm.979,10.571v-8.564a9.609,9.609,0,0,1,8.564,8.564Z" transform="translate(-384 -162.029)" fill="#fff"/>
      </g>
    </g>
    <g id="Group_12" data-name="Group 12" transform="translate(11.257 31.712)">
      <g id="Group_11" data-name="Group 11">
        <path id="Path_29" data-name="Path 29" d="M124.4,324h-8.417a.979.979,0,1,0,0,1.958H124.4a.979.979,0,0,0,0-1.958Z" transform="translate(-115 -324)" fill="#fff"/>
      </g>
    </g>
    <g id="Group_14" data-name="Group 14" transform="translate(23.542 36.411)">
      <g id="Group_13" data-name="Group 13">
        <path id="Path_30" data-name="Path 30" d="M242.184,372.294a.978.978,0,1,0,.287.692A.978.978,0,0,0,242.184,372.294Z" transform="translate(-240.515 -372.008)" fill="#fff"/>
      </g>
    </g>
    <g id="Group_16" data-name="Group 16" transform="translate(11.257 36.41)">
      <g id="Group_15" data-name="Group 15">
        <path id="Path_31" data-name="Path 31" d="M124.4,372h-8.417a.979.979,0,1,0,0,1.958H124.4a.979.979,0,0,0,0-1.958Z" transform="translate(-115 -372)" fill="#fff"/>
      </g>
    </g>
    <g id="Group_18" data-name="Group 18" transform="translate(11.257 27.014)">
      <g id="Group_17" data-name="Group 17">
        <path id="Path_32" data-name="Path 32" d="M119.348,276h-3.369a.979.979,0,1,0,0,1.958h3.369a.979.979,0,0,0,0-1.958Z" transform="translate(-115 -276)" fill="#fff"/>
      </g>
    </g>
  </g>
</svg>
