<svg xmlns="http://www.w3.org/2000/svg" width="51.185" height="51.193" viewBox="0 0 51.185 51.193">
  <g id="insurance-clipboard-document-report-security" transform="translate(-2 -1.991)">
    <path id="Path_1" data-name="Path 1" d="M23.559,5a2.559,2.559,0,1,0,2.559,2.559A2.559,2.559,0,0,0,23.559,5Zm0,3.412a.853.853,0,1,1,.853-.853A.853.853,0,0,1,23.559,8.412Z" transform="translate(-2.791 -0.442)" fill="#272a39"/>
    <path id="Path_2" data-name="Path 2" d="M11,33h3.412v1.706H11Z" transform="translate(-1.322 -4.556)" fill="#272a39"/>
    <path id="Path_3" data-name="Path 3" d="M17,33H29.8v1.706H17Z" transform="translate(-2.204 -4.556)" fill="#272a39"/>
    <path id="Path_4" data-name="Path 4" d="M11,39h3.412v1.706H11Z" transform="translate(-1.322 -5.437)" fill="#272a39"/>
    <path id="Path_5" data-name="Path 5" d="M11,45h3.412v1.706H11Z" transform="translate(-1.322 -6.319)" fill="#272a39"/>
    <path id="Path_6" data-name="Path 6" d="M11,51h3.412v1.706H11Z" transform="translate(-1.322 -7.2)" fill="#272a39"/>
    <path id="Path_7" data-name="Path 7" d="M52.332,30.15h-.853A12.893,12.893,0,0,1,43.8,27.591l-2.047-1.536a.845.845,0,0,0-1.024,0l-1.194.9V9.676a2.567,2.567,0,0,0-2.559-2.559H30a2.568,2.568,0,0,0-2.406-1.706h-2a5.119,5.119,0,0,0-9.657,0h-2a2.568,2.568,0,0,0-2.406,1.706H4.559A2.567,2.567,0,0,0,2,9.676V50.624a2.567,2.567,0,0,0,2.559,2.559H36.976a2.573,2.573,0,0,0,2-.981l1.894.9a.832.832,0,0,0,.734,0l7.49-3.557a7.644,7.644,0,0,0,4.086-6.782V31A.853.853,0,0,0,52.332,30.15ZM30.152,8.823h6.825a.853.853,0,0,1,.853.853v18.5a13,13,0,0,1-1.706.9V11.383a.853.853,0,0,0-.853-.853H30.152ZM13.09,7.97a.853.853,0,0,1,.853-.853h2.645a.843.843,0,0,0,.836-.682,3.412,3.412,0,0,1,6.688,0,.843.843,0,0,0,.836.682h2.645a.853.853,0,0,1,.853.853v3.412H13.09Zm-.853,5.119H29.3a.853.853,0,0,0,.853-.853h4.265V29.673A12.822,12.822,0,0,1,31,30.15h-.853A.853.853,0,0,0,29.3,31v2.559H14.8v1.706H29.3v3.412H14.8v1.706H29.3v2.372a8.418,8.418,0,0,0,.068,1.041H14.8v1.706H29.819a7.7,7.7,0,0,0,1.629,2.559H7.119V12.236h4.265A.853.853,0,0,0,12.237,13.089ZM36.976,51.478H4.559a.853.853,0,0,1-.853-.853V9.676a.853.853,0,0,1,.853-.853h6.825V10.53H6.265a.853.853,0,0,0-.853.853V48.918a.853.853,0,0,0,.853.853H33.871L37.3,51.4a.859.859,0,0,1-.324.077Zm14.5-8.719a5.931,5.931,0,0,1-3.148,5.255l-7.089,3.37L34.17,48.023A5.95,5.95,0,0,1,31,42.759v-10.9a14.588,14.588,0,0,0,8.7-2.9L41.242,27.8l1.536,1.152a14.588,14.588,0,0,0,8.7,2.9Z" fill="#272a39"/>
    <path id="Path_8" data-name="Path 8" d="M28.09,20.412H25.531V17.853A.853.853,0,0,0,24.678,17H21.265a.853.853,0,0,0-.853.853v2.559H17.853a.853.853,0,0,0-.853.853v3.412a.853.853,0,0,0,.853.853h2.559V28.09a.853.853,0,0,0,.853.853h3.412a.853.853,0,0,0,.853-.853V25.531H28.09a.853.853,0,0,0,.853-.853V21.265A.853.853,0,0,0,28.09,20.412Zm-.853,3.412H24.678a.853.853,0,0,0-.853.853v2.559H22.119V24.678a.853.853,0,0,0-.853-.853H18.706V22.119h2.559a.853.853,0,0,0,.853-.853V18.706h1.706v2.559a.853.853,0,0,0,.853.853h2.559Z" transform="translate(-2.204 -2.205)" fill="#272a39"/>
    <path id="Path_9" data-name="Path 9" d="M54.337,38.224a16.244,16.244,0,0,1-7.294-3.054.845.845,0,0,0-1.024,0,16.245,16.245,0,0,1-7.294,3.054.86.86,0,0,0-.725.845v8.539a4.26,4.26,0,0,0,2.2,3.728l.051.026,5.912,2.807a.832.832,0,0,0,.734,0l5.963-2.832a4.271,4.271,0,0,0,2.2-3.728V39.069a.86.86,0,0,0-.725-.845Zm-.981,9.384a2.524,2.524,0,0,1-1.28,2.209l-5.545,2.636L41,49.835a2.559,2.559,0,0,1-1.3-2.227V39.785A18.007,18.007,0,0,0,46.531,36.9a18.007,18.007,0,0,0,6.825,2.883Z" transform="translate(-5.289 -4.849)" fill="#272a39"/>
    <path id="Path_10" data-name="Path 10" d="M43.5,46.558l-1.206,1.206,2.559,2.559a.853.853,0,0,0,1.206,0L52.883,43.5l-1.206-1.206-6.222,6.222Z" transform="translate(-5.92 -5.921)" fill="#272a39"/>
  </g>
</svg>
