<svg xmlns="http://www.w3.org/2000/svg" width="46.033" height="60.844" viewBox="0 0 46.033 60.844">
  <g id="robot" transform="translate(-10.521 -2.001)">
    <path id="Path_1" data-name="Path 1" d="M43,34.544H26.886a5.671,5.671,0,0,1-5.665-5.665V18.248a5.672,5.672,0,0,1,5.665-5.666H43a5.672,5.672,0,0,1,5.665,5.666V28.879A5.671,5.671,0,0,1,43,34.544ZM26.886,14.318a3.931,3.931,0,0,0-3.926,3.93V28.879a3.931,3.931,0,0,0,3.926,3.926H43a3.931,3.931,0,0,0,3.926-3.926V18.248A3.931,3.931,0,0,0,43,14.32Z" transform="translate(-1.399 -1.384)" fill="#272a39"/>
    <path id="Path_2" data-name="Path 2" d="M51.661,29.188a.869.869,0,1,1,0-1.738,3.951,3.951,0,0,0,0-7.9.874.874,0,0,1-.875-.869.864.864,0,0,1,.863-.869,5.689,5.689,0,1,1,.012,11.378Z" transform="translate(-5.266 -2.068)" fill="#272a39"/>
    <path id="Path_3" data-name="Path 3" d="M21.351,29.188a5.689,5.689,0,1,1,0-11.378.874.874,0,0,1,.875.869.864.864,0,0,1-.863.869,3.95,3.95,0,1,0-.012,7.9.869.869,0,0,1,0,1.738Z" transform="translate(-0.672 -2.068)" fill="#272a39"/>
    <path id="Path_4" data-name="Path 4" d="M43.118,26.016a3.98,3.98,0,1,1,3.974-3.986,3.98,3.98,0,0,1-3.974,3.986Zm0-6.223a2.242,2.242,0,1,0,2.236,2.236,2.242,2.242,0,0,0-2.236-2.236Z" transform="translate(-3.742 -2.1)" fill="#272a39"/>
    <path id="Path_5" data-name="Path 5" d="M29.71,26.016a3.98,3.98,0,1,1,3.974-3.986,3.98,3.98,0,0,1-3.974,3.986Zm0-6.223a2.242,2.242,0,1,0,2.236,2.236,2.242,2.242,0,0,0-2.236-2.236Z" transform="translate(-1.988 -2.1)" fill="#272a39"/>
    <path id="Path_6" data-name="Path 6" d="M41.826,32.421H30.169a.869.869,0,1,1,0-1.738H41.826a.869.869,0,1,1,0,1.738Z" transform="translate(-2.456 -3.751)" fill="#272a39"/>
    <path id="Path_7" data-name="Path 7" d="M36.5,8.805a3.4,3.4,0,1,1,3.408-3.4A3.4,3.4,0,0,1,36.5,8.805Zm0-5.067a1.664,1.664,0,1,0,1.182.487A1.664,1.664,0,0,0,36.5,3.739Z" transform="translate(-2.953 0)" fill="#272a39"/>
    <path id="Path_8" data-name="Path 8" d="M36.876,13.7a.869.869,0,0,1-.869-.869V8.7a.869.869,0,0,1,1.738,0v4.129A.869.869,0,0,1,36.876,13.7Z" transform="translate(-3.333 -0.762)" fill="#272a39"/>
    <path id="Path_9" data-name="Path 9" d="M34.936,67.746A13.734,13.734,0,0,1,21.221,54.031V40.345a.869.869,0,0,1,.869-.869H47.783a.869.869,0,0,1,.869.869V54.031A13.734,13.734,0,0,1,34.936,67.746ZM22.959,41.214V54.031a11.977,11.977,0,0,0,23.955,0V41.214Z" transform="translate(-1.399 -4.901)" fill="#272a39"/>
    <path id="Path_10" data-name="Path 10" d="M58.45,43.582a3.866,3.866,0,1,1,3.866-3.864,3.866,3.866,0,0,1-3.866,3.864Zm0-6a2.128,2.128,0,1,0,1.507.625,2.128,2.128,0,0,0-1.507-.625Z" transform="translate(-5.763 -4.427)" fill="#272a39"/>
    <path id="Path_11" data-name="Path 11" d="M61.427,60.313H55.48a.869.869,0,0,1-.869-.869V57.167a3.843,3.843,0,1,1,7.685,0v2.278A.869.869,0,0,1,61.427,60.313Zm-5.077-1.738h4.208V57.167a2.1,2.1,0,1,0-4.208,0Z" transform="translate(-5.766 -6.712)" fill="#272a39"/>
    <path id="Path_12" data-name="Path 12" d="M58.9,53.679a.869.869,0,0,1-.869-.869v-9.2a.869.869,0,1,1,1.738,0v9.2a.869.869,0,0,1-.869.869Z" transform="translate(-6.214 -5.329)" fill="#272a39"/>
    <path id="Path_13" data-name="Path 13" d="M51.644,41.191a.869.869,0,0,1-.04-1.738l3.3-.156a.87.87,0,1,1,.087,1.738l-3.3.156Z" transform="translate(-5.262 -4.877)" fill="#272a39"/>
    <path id="Path_14" data-name="Path 14" d="M14.386,43.582a3.866,3.866,0,1,1,3.867-3.864,3.866,3.866,0,0,1-3.867,3.864Zm0-6a2.128,2.128,0,1,0,1.507.625,2.128,2.128,0,0,0-1.507-.625Z" transform="translate(0 -4.427)" fill="#272a39"/>
    <path id="Path_15" data-name="Path 15" d="M17.364,60.313H11.417a.869.869,0,0,1-.869-.869V57.167a3.843,3.843,0,1,1,7.685,0v2.278A.869.869,0,0,1,17.364,60.313Zm-5.077-1.738h4.208V57.167a2.1,2.1,0,1,0-4.208,0Z" transform="translate(-0.004 -6.712)" fill="#272a39"/>
    <path id="Path_16" data-name="Path 16" d="M14.837,53.679a.869.869,0,0,1-.869-.869v-9.2a.869.869,0,1,1,1.738,0v9.2a.869.869,0,0,1-.869.869Z" transform="translate(-0.451 -5.329)" fill="#272a39"/>
    <path id="Path_17" data-name="Path 17" d="M21.594,41.191h-.042l-3.3-.156a.869.869,0,0,1-.827-.909.894.894,0,0,1,.909-.827l3.3.156a.869.869,0,1,1-.04,1.738Z" transform="translate(-0.902 -4.878)" fill="#272a39"/>
    <path id="Path_18" data-name="Path 18" d="M26.547,53.238V52.122L33,49.4v1.189l-5.114,2.1L33,54.807V56Z" transform="translate(-2.096 -6.199)" fill="#272a39"/>
    <path id="Path_19" data-name="Path 19" d="M33.365,56.553l-7.318-3.129V51.735l7.318-3.09v2.134l-4.409,1.809,4.409,1.825Zm-6.449-3.7,5.58,2.385V55l-5.58-2.312Zm0-.541v.174l5.58-2.29v-.242Z" transform="translate(-2.031 -6.1)" fill="#272a39"/>
    <path id="Path_20" data-name="Path 20" d="M34.83,57.386,37.652,47.32h.956L35.793,57.386Z" transform="translate(-3.179 -5.927)" fill="#272a39"/>
    <path id="Path_21" data-name="Path 21" d="M36.036,57.755H34.17L37.238,46.82H39.1Zm-.72-.869h.06l2.573-9.2H37.9Z" transform="translate(-3.093 -5.862)" fill="#272a39"/>
    <path id="Path_22" data-name="Path 22" d="M46.483,53.238l-6.449,2.756V54.8l5.108-2.119-5.108-2.1V49.4l6.449,2.723Z" transform="translate(-3.86 -6.199)" fill="#272a39"/>
    <path id="Path_23" data-name="Path 23" d="M39.534,56.553V54.416l4.4-1.825-4.4-1.811V48.645l7.318,3.09v1.691ZM40.4,55v.24l5.579-2.385v-.174Zm0-4.8,5.579,2.293v-.179L40.4,49.956Z" transform="translate(-3.794 -6.1)" fill="#272a39"/>
  </g>
</svg>
