<svg id="web-dev" xmlns="http://www.w3.org/2000/svg" width="42.759" height="37.723" viewBox="0 0 42.759 37.723">
  <path id="Path_377" data-name="Path 377" d="M100.2,158.593a.7.7,0,0,1-.457-.168l-4.568-3.89a.706.706,0,0,1,0-1.075l4.568-3.89a.706.706,0,1,1,.915,1.075L96.723,154l3.936,3.353a.706.706,0,0,1-.458,1.244Zm0,0" transform="translate(-83.331 -131.149)" fill="#272a39"/>
  <path id="Path_378" data-name="Path 378" d="M206.832,158.592a.706.706,0,0,1-.458-1.244L210.311,154l-3.936-3.353a.706.706,0,1,1,.915-1.075l4.568,3.89a.706.706,0,0,1,0,1.075l-4.568,3.89a.7.7,0,0,1-.457.168Zm0,0" transform="translate(-180.944 -131.148)" fill="#272a39"/>
  <path id="Path_379" data-name="Path 379" d="M156.678,141.247a.717.717,0,0,1-.147-.015.706.706,0,0,1-.545-.837l2.847-13.517a.706.706,0,1,1,1.381.291l-2.847,13.517A.706.706,0,0,1,156.678,141.247Zm0,0" transform="translate(-136.918 -110.886)" fill="#272a39"/>
  <path id="Path_380" data-name="Path 380" d="M38.019,37.723H4.74A4.745,4.745,0,0,1,0,32.985V4.74A4.746,4.746,0,0,1,4.74,0H38.019a4.746,4.746,0,0,1,4.74,4.74V32.985a4.745,4.745,0,0,1-4.74,4.738ZM4.74,1.412A3.332,3.332,0,0,0,1.412,4.739V32.985A3.332,3.332,0,0,0,4.74,36.313H38.019a3.332,3.332,0,0,0,3.328-3.328V4.74a3.332,3.332,0,0,0-3.328-3.328Zm0,0" transform="translate(0)" fill="#272a39"/>
  <path id="Path_381" data-name="Path 381" d="M42.053,82.383H.706a.706.706,0,1,1,0-1.412H42.053a.706.706,0,1,1,0,1.412Zm0,0" transform="translate(0 -71.079)" fill="#272a39"/>
  <path id="Path_382" data-name="Path 382" d="M82.676,32.776a2.234,2.234,0,1,1,2.234-2.234A2.234,2.234,0,0,1,82.676,32.776Zm0-3.056a.822.822,0,1,0,.822.822A.822.822,0,0,0,82.676,29.72Zm0,0" transform="translate(-70.614 -24.849)" fill="#272a39"/>
  <path id="Path_383" data-name="Path 383" d="M26.488,32.6a2.234,2.234,0,1,1,2.234-2.234A2.234,2.234,0,0,1,26.488,32.6Zm0-3.056a.822.822,0,1,0,.825.822A.822.822,0,0,0,26.488,29.54Zm0,0" transform="translate(-21.292 -24.692)" fill="#272a39"/>
  <path id="Path_384" data-name="Path 384" d="M138.862,32.95a2.234,2.234,0,1,1,2.234-2.234A2.234,2.234,0,0,1,138.862,32.95Zm0-3.056a.822.822,0,1,0,.822.822A.822.822,0,0,0,138.862,29.894Zm0,0" transform="translate(-119.936 -25.002)" fill="#272a39"/>
</svg>
