<svg xmlns="http://www.w3.org/2000/svg" width="18.227" height="18.193" viewBox="0 0 18.227 18.193">
  <path fill="#AFAFAF" id="fa-instagram" d="M1744.948,615.9a.707.707,0,0,1-.51.207h-12.685a.709.709,0,0,1-.724-.723v-7.675h1.673a5.085,5.085,0,0,0-.237,1.552,5.2,5.2,0,0,0,1.661,3.879,5.548,5.548,0,0,0,4,1.6,5.71,5.71,0,0,0,2.848-.734,5.534,5.534,0,0,0,2.065-2,5.243,5.243,0,0,0,.759-2.754,5.089,5.089,0,0,0-.237-1.552h1.6v7.675A.688.688,0,0,1,1744.948,615.9Zm-6.823-3.287a3.583,3.583,0,0,1-2.581-1.036,3.458,3.458,0,0,1,0-5.01,3.747,3.747,0,0,1,5.174,0,3.459,3.459,0,0,1,0,5.01,3.6,3.6,0,0,1-2.593,1.036Zm6.8-7.225a.792.792,0,0,1-.582.237h-2.065a.81.81,0,0,1-.819-.817v-1.954a.794.794,0,0,1,.237-.574.782.782,0,0,1,.581-.243h2.065a.782.782,0,0,1,.582.243.8.8,0,0,1,.237.574v1.954A.789.789,0,0,1,1744.925,605.392Zm1.614-4.69a2.253,2.253,0,0,0-1.649-.687h-13.551a2.347,2.347,0,0,0-2.338,2.333v13.526a2.348,2.348,0,0,0,2.338,2.333h13.551a2.348,2.348,0,0,0,2.338-2.333V602.348A2.245,2.245,0,0,0,1746.538,600.7Z" transform="translate(-1729 -600.015)"/>
</svg>
