<svg xmlns="http://www.w3.org/2000/svg" width="19.299" height="18.252" viewBox="0 0 19.299 18.252">
  <path fill="#AFAFAF" id="fa-linkedin" d="M1729.239,549.907v12.321h4.146V549.907Zm3.769-5.328a2.313,2.313,0,0,0-1.671-.6,2.379,2.379,0,0,0-1.69.6A1.992,1.992,0,0,0,1729,546.1a2.026,2.026,0,0,0,.628,1.517,2.281,2.281,0,0,0,1.658.609h.025a2.383,2.383,0,0,0,1.7-.609,1.959,1.959,0,0,0,.634-1.517A2.063,2.063,0,0,0,1733.008,544.58Zm13.984,6.453a4.486,4.486,0,0,0-3.455-1.411,5.033,5.033,0,0,0-1.439.193,3.279,3.279,0,0,0-1.093.541,4.692,4.692,0,0,0-1.225,1.343h.025v-1.79h-4.134l.013.6q.012.6.013,3.68t-.025,8.044h4.134v-6.876a2.969,2.969,0,0,1,.138-1.007,2.644,2.644,0,0,1,.8-1.063,2.049,2.049,0,0,1,1.325-.429,1.794,1.794,0,0,1,1.589.74,3.568,3.568,0,0,1,.509,2.045v6.589h4.134v-7.062A5.88,5.88,0,0,0,1746.992,551.033Z" transform="translate(-1729 -543.977)"/>
</svg>
