<svg xmlns="http://www.w3.org/2000/svg" width="19.274" height="15.019" viewBox="0 0 19.274 15.019">
  <path fill="#AFAFAF" id="fa-twitter" d="M1746.022,491.356a3.712,3.712,0,0,0,1.737-2.089,7.948,7.948,0,0,1-2.507.915,4.077,4.077,0,0,0-5.681-.088,3.579,3.579,0,0,0-1.156,2.681,4.041,4.041,0,0,0,.1.868,11.369,11.369,0,0,1-4.543-1.167,11.118,11.118,0,0,1-3.6-2.8,3.664,3.664,0,0,0-.061,3.719,3.848,3.848,0,0,0,1.284,1.349,4.043,4.043,0,0,1-1.785-.481v.047a3.574,3.574,0,0,0,.9,2.411,3.918,3.918,0,0,0,2.269,1.308,4.245,4.245,0,0,1-1.04.129,5.183,5.183,0,0,1-.746-.059,3.714,3.714,0,0,0,1.394,1.872,3.955,3.955,0,0,0,2.3.757,7.945,7.945,0,0,1-4.9,1.619,8.819,8.819,0,0,1-.954-.047,11.31,11.31,0,0,0,6.066,1.7,11.988,11.988,0,0,0,3.95-.639,10.169,10.169,0,0,0,3.155-1.713,11.627,11.627,0,0,0,2.256-2.47,10.81,10.81,0,0,0,1.412-2.916,10.357,10.357,0,0,0,.465-3.045c0-.219,0-.383-.012-.493a8.106,8.106,0,0,0,1.981-1.96,8.128,8.128,0,0,1-2.275.587Z" transform="translate(-1729.023 -488.985)"/>
</svg>
